<?xml version="1.0" encoding="utf-8" standalone="no"?>
<!DOCTYPE svg PUBLIC "-//W3C//DTD SVG 1.1//EN"
  "http://www.w3.org/Graphics/SVG/1.1/DTD/svg11.dtd">
<!-- Created with matplotlib (http://matplotlib.org/) -->
<svg height="288pt" version="1.1" viewBox="0 0 432 288" width="432pt" xmlns="http://www.w3.org/2000/svg" xmlns:xlink="http://www.w3.org/1999/xlink">
 <defs>
  <style type="text/css">
*{stroke-linecap:butt;stroke-linejoin:round;stroke-miterlimit:100000;}
  </style>
 </defs>
 <g id="figure_1">
  <g id="patch_1">
   <path d="M 0 288 
L 432 288 
L 432 0 
L 0 0 
z
" style="fill:#ffffff;"/>
  </g>
  <g id="axes_1">
   <g id="patch_2">
    <path d="M 54 252 
L 388.8 252 
L 388.8 28.8 
L 54 28.8 
L 54 252 
z
" style="fill:none;"/>
   </g>
   <g id="line2d_1">
    <path clip-path="url(#p15801355ca)" d="M 54 217.025924 
L 58.185 218.956696 
L 62.37 243.97637 
L 66.555 88.161442 
L 70.74 246.243449 
L 74.925 226.36271 
L 79.11 241.293026 
L 83.295 178.841819 
L 87.48 218.610094 
L 91.665 239.322893 
L 95.85 246.243449 
L 100.035 200.95153 
L 104.22 218.22802 
L 108.405 211.718496 
L 112.59 230.358469 
L 116.775 222.732632 
L 120.96 241.354407 
L 125.145 239.287877 
L 129.33 208.118652 
L 133.515 228.2254 
L 137.7 232.863645 
L 141.885 194.453489 
L 146.07 240.739573 
L 150.255 242.408594 
L 154.44 246.243449 
L 158.625 241.354407 
L 162.81 217.30107 
L 166.995 230.101169 
L 171.18 224.109418 
L 175.365 234.144272 
L 179.55 48.532066 
L 183.735 230.074604 
L 187.92 235.789149 
L 192.105 231.278117 
L 196.29 217.608289 
L 200.475 236.850083 
L 204.66 238.820217 
L 208.845 240.649923 
L 213.03 239.935785 
L 217.215 228.107335 
L 221.4 217.896046 
L 225.585 216.41611 
L 229.77 232.104133 
L 233.955 220.996766 
L 238.14 241.782605 
L 242.325 232.997327 
L 246.51 225.378655 
L 250.695 241.782605 
L 254.88 241.782605 
L 259.065 231.027194 
L 263.25 232.139059 
L 267.435 198.735764 
L 271.62 223.460166 
L 275.805 218.790731 
L 279.99 219.3208 
L 284.175 226.306937 
L 288.36 231.780249 
L 292.545 213.667872 
L 296.73 231.066111 
L 300.915 227.945394 
L 305.1 230.011923 
L 309.285 227.560963 
L 313.47 234.900966 
L 317.655 224.93657 
L 321.84 231.066111 
L 326.025 234.900966 
L 330.21 213.526899 
L 334.395 231.395818 
L 338.58 234.900966 
L 342.765 234.900966 
L 346.95 209.641531 
L 351.135 227.89067 
L 355.32 228.441718 
L 359.505 231.780249 
L 363.69 228.441718 
L 367.875 234.900966 
L 372.06 234.900966 
L 376.245 227.89067 
L 380.43 231.780249 
L 384.615 227.231255 
L 388.8 228.342724 
" style="fill:none;stroke:#020202;stroke-linecap:round;stroke-width:1.75;"/>
   </g>
   <g id="patch_3">
    <path d="M 54 28.8 
L 388.8 28.8 
" style="fill:none;"/>
   </g>
   <g id="patch_4">
    <path d="M 388.8 252 
L 388.8 28.8 
" style="fill:none;"/>
   </g>
   <g id="patch_5">
    <path d="M 54 252 
L 388.8 252 
" style="fill:none;"/>
   </g>
   <g id="patch_6">
    <path d="M 54 252 
L 54 28.8 
" style="fill:none;"/>
   </g>
  </g>
 </g>
 <defs>
  <clipPath id="p15801355ca">
   <rect height="223.2" width="334.8" x="54.0" y="28.8"/>
  </clipPath>
 </defs>
</svg>
