<?xml version="1.0" encoding="utf-8" standalone="no"?>
<!DOCTYPE svg PUBLIC "-//W3C//DTD SVG 1.1//EN"
  "http://www.w3.org/Graphics/SVG/1.1/DTD/svg11.dtd">
<!-- Created with matplotlib (http://matplotlib.org/) -->
<svg height="288pt" version="1.1" viewBox="0 0 432 288" width="432pt" xmlns="http://www.w3.org/2000/svg" xmlns:xlink="http://www.w3.org/1999/xlink">
 <defs>
  <style type="text/css">
*{stroke-linecap:butt;stroke-linejoin:round;stroke-miterlimit:100000;}
  </style>
 </defs>
 <g id="figure_1">
  <g id="patch_1">
   <path d="M 0 288 
L 432 288 
L 432 0 
L 0 0 
z
" style="fill:#ffffff;"/>
  </g>
  <g id="axes_1">
   <g id="patch_2">
    <path d="M 54 252 
L 388.8 252 
L 388.8 28.8 
L 54 28.8 
L 54 252 
z
" style="fill:none;"/>
   </g>
   <g id="line2d_1">
    <path clip-path="url(#pe28d66cb9e)" d="M 54 46.219941 
L 58.185 237.311304 
L 62.37 193.253469 
L 66.555 237.311304 
L 70.74 193.253469 
L 74.925 214.524509 
L 79.11 237.311304 
L 83.295 221.624243 
L 87.48 237.311304 
L 91.665 237.311304 
L 95.85 183.150386 
L 100.035 194.769226 
L 104.22 221.624243 
L 108.405 194.769226 
L 112.59 214.524509 
L 116.775 237.311304 
L 120.96 237.311304 
L 125.145 237.311304 
L 129.33 237.311304 
L 133.515 237.311304 
L 137.7 237.311304 
L 141.885 237.311304 
L 146.07 237.311304 
L 150.255 237.311304 
L 154.44 102.134451 
L 158.625 205.937181 
L 162.81 237.311304 
L 166.995 237.311304 
L 171.18 237.311304 
L 175.365 216.040265 
L 179.55 221.624243 
L 183.735 237.311304 
L 187.92 237.311304 
L 192.105 172.753974 
L 196.29 216.811808 
L 200.475 237.311304 
L 204.66 216.811808 
L 208.845 201.124747 
L 213.03 221.624243 
L 217.215 179.853707 
L 221.4 237.311304 
L 225.585 178.337951 
L 229.77 237.311304 
L 233.955 216.040265 
L 238.14 221.624243 
L 242.325 237.311304 
L 246.51 237.311304 
L 250.695 214.524509 
L 254.88 216.811808 
L 259.065 237.311304 
L 263.25 157.066912 
L 267.435 221.624243 
L 271.62 237.311304 
L 275.805 194.025013 
L 279.99 216.040265 
L 284.175 237.311304 
L 288.36 221.624243 
L 292.545 237.311304 
L 296.73 237.311304 
L 300.915 237.311304 
L 305.1 177.566408 
L 309.285 237.311304 
L 313.47 237.311304 
L 317.655 221.624243 
L 321.84 237.311304 
L 326.025 237.311304 
L 330.21 214.524509 
L 334.395 237.311304 
L 338.58 237.311304 
L 342.765 123.40549 
L 346.95 216.811808 
L 351.135 237.311304 
L 355.32 193.253469 
L 359.505 221.624243 
L 363.69 70.522492 
" style="fill:none;stroke:#020202;stroke-linecap:round;stroke-width:1.75;"/>
   </g>
   <g id="patch_3">
    <path d="M 54 28.8 
L 388.8 28.8 
" style="fill:none;"/>
   </g>
   <g id="patch_4">
    <path d="M 388.8 252 
L 388.8 28.8 
" style="fill:none;"/>
   </g>
   <g id="patch_5">
    <path d="M 54 252 
L 388.8 252 
" style="fill:none;"/>
   </g>
   <g id="patch_6">
    <path d="M 54 252 
L 54 28.8 
" style="fill:none;"/>
   </g>
  </g>
 </g>
 <defs>
  <clipPath id="pe28d66cb9e">
   <rect height="223.2" width="334.8" x="54.0" y="28.8"/>
  </clipPath>
 </defs>
</svg>
