<?xml version="1.0" encoding="utf-8" standalone="no"?>
<!DOCTYPE svg PUBLIC "-//W3C//DTD SVG 1.1//EN"
  "http://www.w3.org/Graphics/SVG/1.1/DTD/svg11.dtd">
<!-- Created with matplotlib (http://matplotlib.org/) -->
<svg height="288pt" version="1.1" viewBox="0 0 432 288" width="432pt" xmlns="http://www.w3.org/2000/svg" xmlns:xlink="http://www.w3.org/1999/xlink">
 <defs>
  <style type="text/css">
*{stroke-linecap:butt;stroke-linejoin:round;stroke-miterlimit:100000;}
  </style>
 </defs>
 <g id="figure_1">
  <g id="patch_1">
   <path d="M 0 288 
L 432 288 
L 432 0 
L 0 0 
z
" style="fill:#ffffff;"/>
  </g>
  <g id="axes_1">
   <g id="patch_2">
    <path d="M 54 252 
L 388.8 252 
L 388.8 28.8 
L 54 28.8 
L 54 252 
z
" style="fill:none;"/>
   </g>
   <g id="line2d_1">
    <path clip-path="url(#p9c9f30e528)" d="M 54 230.299709 
L 57.72 235.471968 
L 61.44 225.425154 
L 65.16 235.515063 
L 68.88 231.214978 
L 72.6 235.559633 
L 76.32 235.823699 
L 80.04 238.006979 
L 83.76 239.516066 
L 87.48 228.855325 
L 91.2 237.638673 
L 94.92 231.025769 
L 98.64 237.587984 
L 102.36 229.826285 
L 106.08 238.328305 
L 109.8 223.152078 
L 113.52 219.141679 
L 117.24 235.858585 
L 120.96 231.934159 
L 124.68 217.681367 
L 128.4 227.032975 
L 132.12 236.583488 
L 135.84 228.298586 
L 139.56 210.880761 
L 143.28 234.966832 
L 147 231.384924 
L 150.72 231.51457 
L 154.44 227.884853 
L 158.16 228.971829 
L 161.88 219.269792 
L 165.6 45.902084 
L 169.32 228.323731 
L 173.04 235.429126 
L 176.76 232.822793 
L 180.48 243.154295 
L 184.2 233.227245 
L 187.92 224.324171 
L 191.64 229.299203 
L 195.36 232.19611 
L 199.08 192.147641 
L 202.8 218.116715 
L 206.52 219.785394 
L 210.24 235.690948 
L 213.96 59.490894 
L 217.68 235.685044 
L 221.4 240.083422 
L 225.12 230.657033 
L 228.84 215.212018 
L 232.56 226.516128 
L 236.28 218.413729 
L 240 221.369158 
L 243.72 233.46928 
L 247.44 231.240697 
L 251.16 220.746853 
L 254.88 231.138195 
L 258.6 220.789198 
L 262.32 228.788876 
L 266.04 228.397891 
L 269.76 228.30696 
L 273.48 225.204283 
L 277.2 223.780137 
L 280.92 230.87005 
L 284.64 228.903533 
L 288.36 228.789899 
L 292.08 231.836534 
L 295.8 222.394991 
L 299.52 225.446293 
L 303.24 226.278698 
L 306.96 228.575613 
L 310.68 224.401417 
L 314.4 228.857165 
L 318.12 224.104682 
L 321.84 224.840853 
L 325.56 222.058037 
L 329.28 226.513879 
L 333 226.992515 
L 336.72 229.175795 
L 340.44 229.175795 
L 344.16 226.992515 
L 347.88 228.458004 
L 351.6 225.229519 
L 355.32 228.458004 
L 359.04 225.888801 
L 362.76 225.796088 
" style="fill:none;stroke:#020202;stroke-linecap:round;stroke-width:1.75;"/>
   </g>
   <g id="patch_3">
    <path d="M 54 28.8 
L 388.8 28.8 
" style="fill:none;"/>
   </g>
   <g id="patch_4">
    <path d="M 388.8 252 
L 388.8 28.8 
" style="fill:none;"/>
   </g>
   <g id="patch_5">
    <path d="M 54 252 
L 388.8 252 
" style="fill:none;"/>
   </g>
   <g id="patch_6">
    <path d="M 54 252 
L 54 28.8 
" style="fill:none;"/>
   </g>
  </g>
 </g>
 <defs>
  <clipPath id="p9c9f30e528">
   <rect height="223.2" width="334.8" x="54.0" y="28.8"/>
  </clipPath>
 </defs>
</svg>
