<?xml version="1.0" encoding="utf-8" standalone="no"?>
<!DOCTYPE svg PUBLIC "-//W3C//DTD SVG 1.1//EN"
  "http://www.w3.org/Graphics/SVG/1.1/DTD/svg11.dtd">
<!-- Created with matplotlib (http://matplotlib.org/) -->
<svg height="288pt" version="1.1" viewBox="0 0 432 288" width="432pt" xmlns="http://www.w3.org/2000/svg" xmlns:xlink="http://www.w3.org/1999/xlink">
 <defs>
  <style type="text/css">
*{stroke-linecap:butt;stroke-linejoin:round;stroke-miterlimit:100000;}
  </style>
 </defs>
 <g id="figure_1">
  <g id="patch_1">
   <path d="M 0 288 
L 432 288 
L 432 0 
L 0 0 
z
" style="fill:#ffffff;"/>
  </g>
  <g id="axes_1">
   <g id="patch_2">
    <path d="M 54 252 
L 388.8 252 
L 388.8 28.8 
L 54 28.8 
L 54 252 
z
" style="fill:none;"/>
   </g>
   <g id="line2d_1">
    <path clip-path="url(#pf7652aefdd)" d="M 54 222.377694 
L 58.185 226.480943 
L 62.37 219.790215 
L 66.555 223.63971 
L 70.74 228.124805 
L 74.925 229.517896 
L 79.11 224.961757 
L 83.295 229.983314 
L 87.48 223.094529 
L 91.665 234.347048 
L 95.85 227.767233 
L 100.035 215.167532 
L 104.22 213.454861 
L 108.405 207.465455 
L 112.59 208.286814 
L 116.775 197.08106 
L 120.96 190.350246 
L 125.145 102.601975 
L 129.33 42.534435 
L 133.515 222.490583 
L 137.7 210.219938 
L 141.885 218.205759 
L 146.07 221.943835 
L 150.255 217.003918 
L 154.44 218.77745 
L 158.625 228.795405 
L 162.81 225.368603 
L 166.995 225.447981 
L 171.18 231.119632 
L 175.365 225.466255 
L 179.55 231.658979 
L 183.735 229.828485 
L 187.92 237.355647 
L 192.105 235.91498 
L 196.29 236.215161 
L 200.475 235.513103 
L 204.66 232.079388 
L 208.845 234.039564 
L 213.03 239.472852 
L 217.215 230.612005 
L 221.4 235.654341 
L 225.585 232.066801 
L 229.77 231.256434 
L 233.955 237.734153 
L 238.14 233.391067 
L 242.325 239.141683 
L 246.51 233.633926 
L 250.695 235.066619 
L 254.88 236.358895 
L 259.065 232.69032 
L 263.25 232.374862 
L 267.435 227.122053 
L 271.62 238.761287 
L 275.805 235.296743 
L 279.99 235.979635 
L 284.175 232.994425 
L 288.36 231.341087 
L 292.545 233.578542 
L 296.73 230.698313 
L 300.915 234.808117 
L 305.1 232.767002 
L 309.285 235.018558 
L 313.47 231.292951 
L 317.655 236.334834 
L 321.84 233.587357 
L 326.025 232.694515 
L 330.21 236.334834 
L 334.395 236.334834 
L 338.58 231.994302 
L 342.765 229.773442 
L 346.95 231.498347 
L 351.135 233.062681 
" style="fill:none;stroke:#020202;stroke-linecap:round;stroke-width:1.75;"/>
   </g>
   <g id="patch_3">
    <path d="M 54 28.8 
L 388.8 28.8 
" style="fill:none;"/>
   </g>
   <g id="patch_4">
    <path d="M 388.8 252 
L 388.8 28.8 
" style="fill:none;"/>
   </g>
   <g id="patch_5">
    <path d="M 54 252 
L 388.8 252 
" style="fill:none;"/>
   </g>
   <g id="patch_6">
    <path d="M 54 252 
L 54 28.8 
" style="fill:none;"/>
   </g>
  </g>
 </g>
 <defs>
  <clipPath id="pf7652aefdd">
   <rect height="223.2" width="334.8" x="54.0" y="28.8"/>
  </clipPath>
 </defs>
</svg>
