<?xml version="1.0" encoding="utf-8" standalone="no"?>
<!DOCTYPE svg PUBLIC "-//W3C//DTD SVG 1.1//EN"
  "http://www.w3.org/Graphics/SVG/1.1/DTD/svg11.dtd">
<!-- Created with matplotlib (http://matplotlib.org/) -->
<svg height="288pt" version="1.1" viewBox="0 0 432 288" width="432pt" xmlns="http://www.w3.org/2000/svg" xmlns:xlink="http://www.w3.org/1999/xlink">
 <defs>
  <style type="text/css">
*{stroke-linecap:butt;stroke-linejoin:round;stroke-miterlimit:100000;}
  </style>
 </defs>
 <g id="figure_1">
  <g id="patch_1">
   <path d="M 0 288 
L 432 288 
L 432 0 
L 0 0 
z
" style="fill:#ffffff;"/>
  </g>
  <g id="axes_1">
   <g id="patch_2">
    <path d="M 54 252 
L 388.8 252 
L 388.8 28.8 
L 54 28.8 
L 54 252 
z
" style="fill:none;"/>
   </g>
   <g id="line2d_1">
    <path clip-path="url(#p6772c6240b)" d="M 54 33.834078 
L 57.348 223.34748 
L 60.696 204.065119 
L 64.044 227.542747 
L 67.392 215.672145 
L 70.74 223.537096 
L 74.088 237.136475 
L 77.436 112.283403 
L 80.784 205.65585 
L 84.132 218.47152 
L 87.48 204.149583 
L 90.828 231.21705 
L 94.176 215.22318 
L 97.524 230.23771 
L 100.872 218.165502 
L 104.22 227.009886 
L 107.568 213.22848 
L 110.916 215.941415 
L 114.264 222.217099 
L 117.612 239.848651 
L 120.96 226.8997 
L 124.308 245.204198 
L 127.656 207.725705 
L 131.004 240.082565 
L 134.352 233.737028 
L 137.7 243.02081 
L 141.048 232.647666 
L 144.396 240.372558 
L 147.744 231.860616 
L 151.092 241.37913 
L 154.44 236.506701 
L 157.788 238.548527 
L 161.136 244.276586 
L 164.484 236.72033 
L 167.832 233.363575 
L 171.18 235.198239 
L 174.528 240.513642 
L 177.876 230.523872 
L 181.224 239.75593 
L 184.572 229.383957 
L 187.92 240.575985 
L 191.268 238.260585 
L 194.616 235.047008 
L 197.964 238.178968 
L 201.312 243.300601 
L 204.66 234.28359 
L 208.008 242.116515 
L 211.356 210.824007 
L 214.704 236.588094 
L 218.052 235.087765 
L 221.4 236.179642 
L 224.748 231.434718 
L 228.096 238.017616 
L 231.444 238.017616 
L 234.792 228.4928 
L 238.14 236.704799 
L 241.488 233.421363 
L 244.836 236.704799 
L 248.184 236.704799 
L 251.532 230.137926 
L 254.88 234.521411 
L 258.228 232.338023 
L 261.576 231.140293 
L 264.924 229.155988 
L 268.272 232.338023 
L 271.62 226.431372 
L 274.968 234.880435 
L 278.316 229.200656 
L 281.664 229.910088 
L 285.012 227.697411 
L 288.36 231.991215 
L 291.708 231.991215 
L 295.056 231.991215 
L 298.404 231.991215 
L 301.752 231.991215 
L 305.1 231.991215 
L 308.448 230.349497 
L 311.796 231.991215 
L 315.144 227.411252 
L 318.492 230.487672 
L 321.84 230.487672 
L 325.188 230.487672 
L 328.536 230.487672 
L 331.884 227.700714 
L 335.232 227.700714 
L 338.58 227.700714 
L 341.928 230.487672 
L 345.276 223.767363 
L 348.624 229.847643 
L 351.972 229.847643 
L 355.32 229.847643 
L 358.668 229.847643 
L 362.016 229.847643 
L 365.364 229.847643 
L 368.712 229.847643 
L 372.06 227.060684 
" style="fill:none;stroke:#020202;stroke-linecap:round;stroke-width:1.75;"/>
   </g>
   <g id="patch_3">
    <path d="M 54 28.8 
L 388.8 28.8 
" style="fill:none;"/>
   </g>
   <g id="patch_4">
    <path d="M 388.8 252 
L 388.8 28.8 
" style="fill:none;"/>
   </g>
   <g id="patch_5">
    <path d="M 54 252 
L 388.8 252 
" style="fill:none;"/>
   </g>
   <g id="patch_6">
    <path d="M 54 252 
L 54 28.8 
" style="fill:none;"/>
   </g>
  </g>
 </g>
 <defs>
  <clipPath id="p6772c6240b">
   <rect height="223.2" width="334.8" x="54.0" y="28.8"/>
  </clipPath>
 </defs>
</svg>
