<?xml version="1.0" encoding="utf-8"?>
<svg version="1.1" baseProfile="full"  width="360" height="360" viewBox="0 0 360 360"
		 xmlns="http://www.w3.org/2000/svg" xmlns:xlink="http://www.w3.org/1999/xlink" xmlns:ev="http://www.w3.org/2001/xml-events">
<desc></desc>
<rect width="360" height="360" fill="#ffffff" cx="0" cy="0" />
<defs>
<rect id="p" width="8" height="8" />
</defs>
<g fill="#000000">
<use x="32" y="32" xlink:href="#p" />
<use x="32" y="40" xlink:href="#p" />
<use x="32" y="48" xlink:href="#p" />
<use x="32" y="56" xlink:href="#p" />
<use x="32" y="64" xlink:href="#p" />
<use x="32" y="72" xlink:href="#p" />
<use x="32" y="80" xlink:href="#p" />
<use x="32" y="96" xlink:href="#p" />
<use x="32" y="104" xlink:href="#p" />
<use x="32" y="112" xlink:href="#p" />
<use x="32" y="128" xlink:href="#p" />
<use x="32" y="152" xlink:href="#p" />
<use x="32" y="192" xlink:href="#p" />
<use x="32" y="216" xlink:href="#p" />
<use x="32" y="224" xlink:href="#p" />
<use x="32" y="272" xlink:href="#p" />
<use x="32" y="280" xlink:href="#p" />
<use x="32" y="288" xlink:href="#p" />
<use x="32" y="296" xlink:href="#p" />
<use x="32" y="304" xlink:href="#p" />
<use x="32" y="312" xlink:href="#p" />
<use x="32" y="320" xlink:href="#p" />
<use x="40" y="32" xlink:href="#p" />
<use x="40" y="80" xlink:href="#p" />
<use x="40" y="112" xlink:href="#p" />
<use x="40" y="160" xlink:href="#p" />
<use x="40" y="176" xlink:href="#p" />
<use x="40" y="184" xlink:href="#p" />
<use x="40" y="192" xlink:href="#p" />
<use x="40" y="200" xlink:href="#p" />
<use x="40" y="208" xlink:href="#p" />
<use x="40" y="216" xlink:href="#p" />
<use x="40" y="224" xlink:href="#p" />
<use x="40" y="232" xlink:href="#p" />
<use x="40" y="240" xlink:href="#p" />
<use x="40" y="248" xlink:href="#p" />
<use x="40" y="256" xlink:href="#p" />
<use x="40" y="272" xlink:href="#p" />
<use x="40" y="320" xlink:href="#p" />
<use x="48" y="32" xlink:href="#p" />
<use x="48" y="48" xlink:href="#p" />
<use x="48" y="56" xlink:href="#p" />
<use x="48" y="64" xlink:href="#p" />
<use x="48" y="80" xlink:href="#p" />
<use x="48" y="96" xlink:href="#p" />
<use x="48" y="104" xlink:href="#p" />
<use x="48" y="112" xlink:href="#p" />
<use x="48" y="120" xlink:href="#p" />
<use x="48" y="136" xlink:href="#p" />
<use x="48" y="144" xlink:href="#p" />
<use x="48" y="152" xlink:href="#p" />
<use x="48" y="168" xlink:href="#p" />
<use x="48" y="176" xlink:href="#p" />
<use x="48" y="184" xlink:href="#p" />
<use x="48" y="192" xlink:href="#p" />
<use x="48" y="208" xlink:href="#p" />
<use x="48" y="216" xlink:href="#p" />
<use x="48" y="232" xlink:href="#p" />
<use x="48" y="272" xlink:href="#p" />
<use x="48" y="288" xlink:href="#p" />
<use x="48" y="296" xlink:href="#p" />
<use x="48" y="304" xlink:href="#p" />
<use x="48" y="320" xlink:href="#p" />
<use x="56" y="32" xlink:href="#p" />
<use x="56" y="48" xlink:href="#p" />
<use x="56" y="56" xlink:href="#p" />
<use x="56" y="64" xlink:href="#p" />
<use x="56" y="80" xlink:href="#p" />
<use x="56" y="96" xlink:href="#p" />
<use x="56" y="104" xlink:href="#p" />
<use x="56" y="120" xlink:href="#p" />
<use x="56" y="128" xlink:href="#p" />
<use x="56" y="136" xlink:href="#p" />
<use x="56" y="144" xlink:href="#p" />
<use x="56" y="168" xlink:href="#p" />
<use x="56" y="176" xlink:href="#p" />
<use x="56" y="184" xlink:href="#p" />
<use x="56" y="216" xlink:href="#p" />
<use x="56" y="224" xlink:href="#p" />
<use x="56" y="272" xlink:href="#p" />
<use x="56" y="288" xlink:href="#p" />
<use x="56" y="296" xlink:href="#p" />
<use x="56" y="304" xlink:href="#p" />
<use x="56" y="320" xlink:href="#p" />
<use x="64" y="32" xlink:href="#p" />
<use x="64" y="48" xlink:href="#p" />
<use x="64" y="56" xlink:href="#p" />
<use x="64" y="64" xlink:href="#p" />
<use x="64" y="80" xlink:href="#p" />
<use x="64" y="96" xlink:href="#p" />
<use x="64" y="104" xlink:href="#p" />
<use x="64" y="112" xlink:href="#p" />
<use x="64" y="128" xlink:href="#p" />
<use x="64" y="136" xlink:href="#p" />
<use x="64" y="160" xlink:href="#p" />
<use x="64" y="168" xlink:href="#p" />
<use x="64" y="184" xlink:href="#p" />
<use x="64" y="216" xlink:href="#p" />
<use x="64" y="224" xlink:href="#p" />
<use x="64" y="232" xlink:href="#p" />
<use x="64" y="272" xlink:href="#p" />
<use x="64" y="288" xlink:href="#p" />
<use x="64" y="296" xlink:href="#p" />
<use x="64" y="304" xlink:href="#p" />
<use x="64" y="320" xlink:href="#p" />
<use x="72" y="32" xlink:href="#p" />
<use x="72" y="80" xlink:href="#p" />
<use x="72" y="96" xlink:href="#p" />
<use x="72" y="104" xlink:href="#p" />
<use x="72" y="112" xlink:href="#p" />
<use x="72" y="120" xlink:href="#p" />
<use x="72" y="136" xlink:href="#p" />
<use x="72" y="144" xlink:href="#p" />
<use x="72" y="168" xlink:href="#p" />
<use x="72" y="176" xlink:href="#p" />
<use x="72" y="184" xlink:href="#p" />
<use x="72" y="192" xlink:href="#p" />
<use x="72" y="200" xlink:href="#p" />
<use x="72" y="216" xlink:href="#p" />
<use x="72" y="232" xlink:href="#p" />
<use x="72" y="256" xlink:href="#p" />
<use x="72" y="272" xlink:href="#p" />
<use x="72" y="320" xlink:href="#p" />
<use x="80" y="32" xlink:href="#p" />
<use x="80" y="40" xlink:href="#p" />
<use x="80" y="48" xlink:href="#p" />
<use x="80" y="56" xlink:href="#p" />
<use x="80" y="64" xlink:href="#p" />
<use x="80" y="72" xlink:href="#p" />
<use x="80" y="80" xlink:href="#p" />
<use x="80" y="96" xlink:href="#p" />
<use x="80" y="112" xlink:href="#p" />
<use x="80" y="128" xlink:href="#p" />
<use x="80" y="144" xlink:href="#p" />
<use x="80" y="160" xlink:href="#p" />
<use x="80" y="176" xlink:href="#p" />
<use x="80" y="192" xlink:href="#p" />
<use x="80" y="208" xlink:href="#p" />
<use x="80" y="224" xlink:href="#p" />
<use x="80" y="240" xlink:href="#p" />
<use x="80" y="256" xlink:href="#p" />
<use x="80" y="272" xlink:href="#p" />
<use x="80" y="280" xlink:href="#p" />
<use x="80" y="288" xlink:href="#p" />
<use x="80" y="296" xlink:href="#p" />
<use x="80" y="304" xlink:href="#p" />
<use x="80" y="312" xlink:href="#p" />
<use x="80" y="320" xlink:href="#p" />
<use x="88" y="104" xlink:href="#p" />
<use x="88" y="112" xlink:href="#p" />
<use x="88" y="120" xlink:href="#p" />
<use x="88" y="128" xlink:href="#p" />
<use x="88" y="192" xlink:href="#p" />
<use x="88" y="200" xlink:href="#p" />
<use x="88" y="224" xlink:href="#p" />
<use x="88" y="232" xlink:href="#p" />
<use x="88" y="240" xlink:href="#p" />
<use x="88" y="248" xlink:href="#p" />
<use x="88" y="256" xlink:href="#p" />
<use x="96" y="48" xlink:href="#p" />
<use x="96" y="56" xlink:href="#p" />
<use x="96" y="64" xlink:href="#p" />
<use x="96" y="72" xlink:href="#p" />
<use x="96" y="80" xlink:href="#p" />
<use x="96" y="88" xlink:href="#p" />
<use x="96" y="120" xlink:href="#p" />
<use x="96" y="152" xlink:href="#p" />
<use x="96" y="192" xlink:href="#p" />
<use x="96" y="200" xlink:href="#p" />
<use x="96" y="216" xlink:href="#p" />
<use x="96" y="224" xlink:href="#p" />
<use x="96" y="232" xlink:href="#p" />
<use x="96" y="248" xlink:href="#p" />
<use x="96" y="264" xlink:href="#p" />
<use x="96" y="280" xlink:href="#p" />
<use x="96" y="288" xlink:href="#p" />
<use x="96" y="296" xlink:href="#p" />
<use x="96" y="304" xlink:href="#p" />
<use x="96" y="320" xlink:href="#p" />
<use x="104" y="64" xlink:href="#p" />
<use x="104" y="72" xlink:href="#p" />
<use x="104" y="88" xlink:href="#p" />
<use x="104" y="96" xlink:href="#p" />
<use x="104" y="112" xlink:href="#p" />
<use x="104" y="120" xlink:href="#p" />
<use x="104" y="136" xlink:href="#p" />
<use x="104" y="152" xlink:href="#p" />
<use x="104" y="176" xlink:href="#p" />
<use x="104" y="184" xlink:href="#p" />
<use x="104" y="192" xlink:href="#p" />
<use x="104" y="232" xlink:href="#p" />
<use x="104" y="256" xlink:href="#p" />
<use x="104" y="264" xlink:href="#p" />
<use x="104" y="272" xlink:href="#p" />
<use x="104" y="288" xlink:href="#p" />
<use x="104" y="296" xlink:href="#p" />
<use x="104" y="304" xlink:href="#p" />
<use x="112" y="40" xlink:href="#p" />
<use x="112" y="80" xlink:href="#p" />
<use x="112" y="88" xlink:href="#p" />
<use x="112" y="96" xlink:href="#p" />
<use x="112" y="104" xlink:href="#p" />
<use x="112" y="136" xlink:href="#p" />
<use x="112" y="160" xlink:href="#p" />
<use x="112" y="176" xlink:href="#p" />
<use x="112" y="192" xlink:href="#p" />
<use x="112" y="208" xlink:href="#p" />
<use x="112" y="216" xlink:href="#p" />
<use x="112" y="224" xlink:href="#p" />
<use x="112" y="232" xlink:href="#p" />
<use x="112" y="240" xlink:href="#p" />
<use x="112" y="248" xlink:href="#p" />
<use x="112" y="272" xlink:href="#p" />
<use x="112" y="288" xlink:href="#p" />
<use x="112" y="304" xlink:href="#p" />
<use x="120" y="32" xlink:href="#p" />
<use x="120" y="40" xlink:href="#p" />
<use x="120" y="48" xlink:href="#p" />
<use x="120" y="56" xlink:href="#p" />
<use x="120" y="72" xlink:href="#p" />
<use x="120" y="88" xlink:href="#p" />
<use x="120" y="128" xlink:href="#p" />
<use x="120" y="152" xlink:href="#p" />
<use x="120" y="160" xlink:href="#p" />
<use x="120" y="168" xlink:href="#p" />
<use x="120" y="176" xlink:href="#p" />
<use x="120" y="192" xlink:href="#p" />
<use x="120" y="200" xlink:href="#p" />
<use x="120" y="208" xlink:href="#p" />
<use x="120" y="224" xlink:href="#p" />
<use x="120" y="240" xlink:href="#p" />
<use x="120" y="264" xlink:href="#p" />
<use x="120" y="320" xlink:href="#p" />
<use x="128" y="32" xlink:href="#p" />
<use x="128" y="40" xlink:href="#p" />
<use x="128" y="48" xlink:href="#p" />
<use x="128" y="56" xlink:href="#p" />
<use x="128" y="64" xlink:href="#p" />
<use x="128" y="80" xlink:href="#p" />
<use x="128" y="96" xlink:href="#p" />
<use x="128" y="112" xlink:href="#p" />
<use x="128" y="120" xlink:href="#p" />
<use x="128" y="128" xlink:href="#p" />
<use x="128" y="160" xlink:href="#p" />
<use x="128" y="184" xlink:href="#p" />
<use x="128" y="192" xlink:href="#p" />
<use x="128" y="200" xlink:href="#p" />
<use x="128" y="208" xlink:href="#p" />
<use x="128" y="232" xlink:href="#p" />
<use x="128" y="240" xlink:href="#p" />
<use x="128" y="248" xlink:href="#p" />
<use x="128" y="272" xlink:href="#p" />
<use x="128" y="280" xlink:href="#p" />
<use x="128" y="288" xlink:href="#p" />
<use x="128" y="304" xlink:href="#p" />
<use x="128" y="312" xlink:href="#p" />
<use x="128" y="320" xlink:href="#p" />
<use x="136" y="32" xlink:href="#p" />
<use x="136" y="48" xlink:href="#p" />
<use x="136" y="64" xlink:href="#p" />
<use x="136" y="96" xlink:href="#p" />
<use x="136" y="104" xlink:href="#p" />
<use x="136" y="120" xlink:href="#p" />
<use x="136" y="152" xlink:href="#p" />
<use x="136" y="160" xlink:href="#p" />
<use x="136" y="168" xlink:href="#p" />
<use x="136" y="176" xlink:href="#p" />
<use x="136" y="184" xlink:href="#p" />
<use x="136" y="192" xlink:href="#p" />
<use x="136" y="200" xlink:href="#p" />
<use x="136" y="232" xlink:href="#p" />
<use x="136" y="240" xlink:href="#p" />
<use x="136" y="248" xlink:href="#p" />
<use x="136" y="256" xlink:href="#p" />
<use x="136" y="280" xlink:href="#p" />
<use x="136" y="296" xlink:href="#p" />
<use x="136" y="312" xlink:href="#p" />
<use x="136" y="320" xlink:href="#p" />
<use x="144" y="40" xlink:href="#p" />
<use x="144" y="48" xlink:href="#p" />
<use x="144" y="56" xlink:href="#p" />
<use x="144" y="72" xlink:href="#p" />
<use x="144" y="80" xlink:href="#p" />
<use x="144" y="96" xlink:href="#p" />
<use x="144" y="120" xlink:href="#p" />
<use x="144" y="152" xlink:href="#p" />
<use x="144" y="168" xlink:href="#p" />
<use x="144" y="192" xlink:href="#p" />
<use x="144" y="224" xlink:href="#p" />
<use x="144" y="264" xlink:href="#p" />
<use x="144" y="280" xlink:href="#p" />
<use x="144" y="320" xlink:href="#p" />
<use x="152" y="40" xlink:href="#p" />
<use x="152" y="56" xlink:href="#p" />
<use x="152" y="88" xlink:href="#p" />
<use x="152" y="96" xlink:href="#p" />
<use x="152" y="104" xlink:href="#p" />
<use x="152" y="144" xlink:href="#p" />
<use x="152" y="168" xlink:href="#p" />
<use x="152" y="176" xlink:href="#p" />
<use x="152" y="184" xlink:href="#p" />
<use x="152" y="192" xlink:href="#p" />
<use x="152" y="208" xlink:href="#p" />
<use x="152" y="232" xlink:href="#p" />
<use x="152" y="272" xlink:href="#p" />
<use x="152" y="296" xlink:href="#p" />
<use x="152" y="304" xlink:href="#p" />
<use x="152" y="312" xlink:href="#p" />
<use x="152" y="320" xlink:href="#p" />
<use x="160" y="64" xlink:href="#p" />
<use x="160" y="80" xlink:href="#p" />
<use x="160" y="88" xlink:href="#p" />
<use x="160" y="104" xlink:href="#p" />
<use x="160" y="120" xlink:href="#p" />
<use x="160" y="152" xlink:href="#p" />
<use x="160" y="160" xlink:href="#p" />
<use x="160" y="176" xlink:href="#p" />
<use x="160" y="200" xlink:href="#p" />
<use x="160" y="216" xlink:href="#p" />
<use x="160" y="232" xlink:href="#p" />
<use x="160" y="248" xlink:href="#p" />
<use x="160" y="264" xlink:href="#p" />
<use x="160" y="272" xlink:href="#p" />
<use x="160" y="280" xlink:href="#p" />
<use x="160" y="288" xlink:href="#p" />
<use x="160" y="304" xlink:href="#p" />
<use x="168" y="32" xlink:href="#p" />
<use x="168" y="56" xlink:href="#p" />
<use x="168" y="104" xlink:href="#p" />
<use x="168" y="112" xlink:href="#p" />
<use x="168" y="128" xlink:href="#p" />
<use x="168" y="136" xlink:href="#p" />
<use x="168" y="144" xlink:href="#p" />
<use x="168" y="152" xlink:href="#p" />
<use x="168" y="192" xlink:href="#p" />
<use x="168" y="256" xlink:href="#p" />
<use x="168" y="264" xlink:href="#p" />
<use x="168" y="272" xlink:href="#p" />
<use x="168" y="280" xlink:href="#p" />
<use x="168" y="296" xlink:href="#p" />
<use x="168" y="320" xlink:href="#p" />
<use x="176" y="32" xlink:href="#p" />
<use x="176" y="48" xlink:href="#p" />
<use x="176" y="56" xlink:href="#p" />
<use x="176" y="64" xlink:href="#p" />
<use x="176" y="72" xlink:href="#p" />
<use x="176" y="80" xlink:href="#p" />
<use x="176" y="96" xlink:href="#p" />
<use x="176" y="120" xlink:href="#p" />
<use x="176" y="136" xlink:href="#p" />
<use x="176" y="152" xlink:href="#p" />
<use x="176" y="168" xlink:href="#p" />
<use x="176" y="200" xlink:href="#p" />
<use x="176" y="208" xlink:href="#p" />
<use x="176" y="224" xlink:href="#p" />
<use x="176" y="240" xlink:href="#p" />
<use x="176" y="264" xlink:href="#p" />
<use x="176" y="280" xlink:href="#p" />
<use x="176" y="296" xlink:href="#p" />
<use x="184" y="40" xlink:href="#p" />
<use x="184" y="48" xlink:href="#p" />
<use x="184" y="56" xlink:href="#p" />
<use x="184" y="64" xlink:href="#p" />
<use x="184" y="96" xlink:href="#p" />
<use x="184" y="136" xlink:href="#p" />
<use x="184" y="176" xlink:href="#p" />
<use x="184" y="184" xlink:href="#p" />
<use x="184" y="192" xlink:href="#p" />
<use x="184" y="200" xlink:href="#p" />
<use x="184" y="216" xlink:href="#p" />
<use x="184" y="248" xlink:href="#p" />
<use x="184" y="264" xlink:href="#p" />
<use x="184" y="280" xlink:href="#p" />
<use x="184" y="288" xlink:href="#p" />
<use x="184" y="296" xlink:href="#p" />
<use x="184" y="320" xlink:href="#p" />
<use x="192" y="32" xlink:href="#p" />
<use x="192" y="48" xlink:href="#p" />
<use x="192" y="64" xlink:href="#p" />
<use x="192" y="80" xlink:href="#p" />
<use x="192" y="88" xlink:href="#p" />
<use x="192" y="96" xlink:href="#p" />
<use x="192" y="112" xlink:href="#p" />
<use x="192" y="136" xlink:href="#p" />
<use x="192" y="144" xlink:href="#p" />
<use x="192" y="152" xlink:href="#p" />
<use x="192" y="168" xlink:href="#p" />
<use x="192" y="184" xlink:href="#p" />
<use x="192" y="200" xlink:href="#p" />
<use x="192" y="264" xlink:href="#p" />
<use x="192" y="272" xlink:href="#p" />
<use x="192" y="280" xlink:href="#p" />
<use x="192" y="288" xlink:href="#p" />
<use x="192" y="296" xlink:href="#p" />
<use x="200" y="48" xlink:href="#p" />
<use x="200" y="64" xlink:href="#p" />
<use x="200" y="88" xlink:href="#p" />
<use x="200" y="104" xlink:href="#p" />
<use x="200" y="112" xlink:href="#p" />
<use x="200" y="120" xlink:href="#p" />
<use x="200" y="144" xlink:href="#p" />
<use x="200" y="152" xlink:href="#p" />
<use x="200" y="160" xlink:href="#p" />
<use x="200" y="168" xlink:href="#p" />
<use x="200" y="184" xlink:href="#p" />
<use x="200" y="200" xlink:href="#p" />
<use x="200" y="216" xlink:href="#p" />
<use x="200" y="232" xlink:href="#p" />
<use x="200" y="240" xlink:href="#p" />
<use x="200" y="248" xlink:href="#p" />
<use x="200" y="272" xlink:href="#p" />
<use x="200" y="280" xlink:href="#p" />
<use x="200" y="296" xlink:href="#p" />
<use x="200" y="312" xlink:href="#p" />
<use x="208" y="32" xlink:href="#p" />
<use x="208" y="40" xlink:href="#p" />
<use x="208" y="48" xlink:href="#p" />
<use x="208" y="56" xlink:href="#p" />
<use x="208" y="64" xlink:href="#p" />
<use x="208" y="72" xlink:href="#p" />
<use x="208" y="80" xlink:href="#p" />
<use x="208" y="96" xlink:href="#p" />
<use x="208" y="112" xlink:href="#p" />
<use x="208" y="120" xlink:href="#p" />
<use x="208" y="128" xlink:href="#p" />
<use x="208" y="136" xlink:href="#p" />
<use x="208" y="152" xlink:href="#p" />
<use x="208" y="160" xlink:href="#p" />
<use x="208" y="168" xlink:href="#p" />
<use x="208" y="184" xlink:href="#p" />
<use x="208" y="192" xlink:href="#p" />
<use x="208" y="208" xlink:href="#p" />
<use x="208" y="232" xlink:href="#p" />
<use x="208" y="240" xlink:href="#p" />
<use x="208" y="248" xlink:href="#p" />
<use x="208" y="256" xlink:href="#p" />
<use x="208" y="264" xlink:href="#p" />
<use x="208" y="296" xlink:href="#p" />
<use x="216" y="48" xlink:href="#p" />
<use x="216" y="56" xlink:href="#p" />
<use x="216" y="64" xlink:href="#p" />
<use x="216" y="96" xlink:href="#p" />
<use x="216" y="128" xlink:href="#p" />
<use x="216" y="136" xlink:href="#p" />
<use x="216" y="152" xlink:href="#p" />
<use x="216" y="160" xlink:href="#p" />
<use x="216" y="168" xlink:href="#p" />
<use x="216" y="184" xlink:href="#p" />
<use x="216" y="200" xlink:href="#p" />
<use x="216" y="216" xlink:href="#p" />
<use x="216" y="232" xlink:href="#p" />
<use x="216" y="248" xlink:href="#p" />
<use x="216" y="264" xlink:href="#p" />
<use x="216" y="280" xlink:href="#p" />
<use x="216" y="288" xlink:href="#p" />
<use x="216" y="312" xlink:href="#p" />
<use x="216" y="320" xlink:href="#p" />
<use x="224" y="40" xlink:href="#p" />
<use x="224" y="56" xlink:href="#p" />
<use x="224" y="64" xlink:href="#p" />
<use x="224" y="80" xlink:href="#p" />
<use x="224" y="96" xlink:href="#p" />
<use x="224" y="128" xlink:href="#p" />
<use x="224" y="160" xlink:href="#p" />
<use x="224" y="176" xlink:href="#p" />
<use x="224" y="184" xlink:href="#p" />
<use x="224" y="192" xlink:href="#p" />
<use x="224" y="216" xlink:href="#p" />
<use x="224" y="232" xlink:href="#p" />
<use x="224" y="248" xlink:href="#p" />
<use x="224" y="256" xlink:href="#p" />
<use x="224" y="272" xlink:href="#p" />
<use x="224" y="288" xlink:href="#p" />
<use x="224" y="304" xlink:href="#p" />
<use x="224" y="312" xlink:href="#p" />
<use x="224" y="320" xlink:href="#p" />
<use x="232" y="32" xlink:href="#p" />
<use x="232" y="40" xlink:href="#p" />
<use x="232" y="56" xlink:href="#p" />
<use x="232" y="64" xlink:href="#p" />
<use x="232" y="128" xlink:href="#p" />
<use x="232" y="136" xlink:href="#p" />
<use x="232" y="144" xlink:href="#p" />
<use x="232" y="168" xlink:href="#p" />
<use x="232" y="192" xlink:href="#p" />
<use x="232" y="224" xlink:href="#p" />
<use x="232" y="240" xlink:href="#p" />
<use x="232" y="256" xlink:href="#p" />
<use x="232" y="288" xlink:href="#p" />
<use x="232" y="296" xlink:href="#p" />
<use x="232" y="320" xlink:href="#p" />
<use x="240" y="40" xlink:href="#p" />
<use x="240" y="48" xlink:href="#p" />
<use x="240" y="56" xlink:href="#p" />
<use x="240" y="64" xlink:href="#p" />
<use x="240" y="80" xlink:href="#p" />
<use x="240" y="96" xlink:href="#p" />
<use x="240" y="112" xlink:href="#p" />
<use x="240" y="128" xlink:href="#p" />
<use x="240" y="144" xlink:href="#p" />
<use x="240" y="160" xlink:href="#p" />
<use x="240" y="168" xlink:href="#p" />
<use x="240" y="184" xlink:href="#p" />
<use x="240" y="192" xlink:href="#p" />
<use x="240" y="224" xlink:href="#p" />
<use x="240" y="232" xlink:href="#p" />
<use x="240" y="240" xlink:href="#p" />
<use x="240" y="256" xlink:href="#p" />
<use x="240" y="264" xlink:href="#p" />
<use x="240" y="272" xlink:href="#p" />
<use x="240" y="280" xlink:href="#p" />
<use x="240" y="288" xlink:href="#p" />
<use x="240" y="312" xlink:href="#p" />
<use x="248" y="40" xlink:href="#p" />
<use x="248" y="56" xlink:href="#p" />
<use x="248" y="72" xlink:href="#p" />
<use x="248" y="88" xlink:href="#p" />
<use x="248" y="96" xlink:href="#p" />
<use x="248" y="112" xlink:href="#p" />
<use x="248" y="128" xlink:href="#p" />
<use x="248" y="144" xlink:href="#p" />
<use x="248" y="160" xlink:href="#p" />
<use x="248" y="176" xlink:href="#p" />
<use x="248" y="184" xlink:href="#p" />
<use x="248" y="208" xlink:href="#p" />
<use x="248" y="232" xlink:href="#p" />
<use x="248" y="240" xlink:href="#p" />
<use x="248" y="256" xlink:href="#p" />
<use x="248" y="264" xlink:href="#p" />
<use x="248" y="280" xlink:href="#p" />
<use x="248" y="288" xlink:href="#p" />
<use x="248" y="296" xlink:href="#p" />
<use x="256" y="32" xlink:href="#p" />
<use x="256" y="40" xlink:href="#p" />
<use x="256" y="64" xlink:href="#p" />
<use x="256" y="80" xlink:href="#p" />
<use x="256" y="96" xlink:href="#p" />
<use x="256" y="112" xlink:href="#p" />
<use x="256" y="120" xlink:href="#p" />
<use x="256" y="128" xlink:href="#p" />
<use x="256" y="136" xlink:href="#p" />
<use x="256" y="144" xlink:href="#p" />
<use x="256" y="160" xlink:href="#p" />
<use x="256" y="184" xlink:href="#p" />
<use x="256" y="192" xlink:href="#p" />
<use x="256" y="200" xlink:href="#p" />
<use x="256" y="216" xlink:href="#p" />
<use x="256" y="232" xlink:href="#p" />
<use x="256" y="240" xlink:href="#p" />
<use x="256" y="256" xlink:href="#p" />
<use x="256" y="264" xlink:href="#p" />
<use x="256" y="272" xlink:href="#p" />
<use x="256" y="280" xlink:href="#p" />
<use x="256" y="288" xlink:href="#p" />
<use x="256" y="296" xlink:href="#p" />
<use x="256" y="304" xlink:href="#p" />
<use x="264" y="104" xlink:href="#p" />
<use x="264" y="112" xlink:href="#p" />
<use x="264" y="120" xlink:href="#p" />
<use x="264" y="128" xlink:href="#p" />
<use x="264" y="136" xlink:href="#p" />
<use x="264" y="144" xlink:href="#p" />
<use x="264" y="168" xlink:href="#p" />
<use x="264" y="192" xlink:href="#p" />
<use x="264" y="216" xlink:href="#p" />
<use x="264" y="224" xlink:href="#p" />
<use x="264" y="240" xlink:href="#p" />
<use x="264" y="248" xlink:href="#p" />
<use x="264" y="256" xlink:href="#p" />
<use x="264" y="288" xlink:href="#p" />
<use x="264" y="296" xlink:href="#p" />
<use x="272" y="32" xlink:href="#p" />
<use x="272" y="40" xlink:href="#p" />
<use x="272" y="48" xlink:href="#p" />
<use x="272" y="56" xlink:href="#p" />
<use x="272" y="64" xlink:href="#p" />
<use x="272" y="72" xlink:href="#p" />
<use x="272" y="80" xlink:href="#p" />
<use x="272" y="96" xlink:href="#p" />
<use x="272" y="128" xlink:href="#p" />
<use x="272" y="144" xlink:href="#p" />
<use x="272" y="160" xlink:href="#p" />
<use x="272" y="176" xlink:href="#p" />
<use x="272" y="184" xlink:href="#p" />
<use x="272" y="192" xlink:href="#p" />
<use x="272" y="216" xlink:href="#p" />
<use x="272" y="224" xlink:href="#p" />
<use x="272" y="240" xlink:href="#p" />
<use x="272" y="248" xlink:href="#p" />
<use x="272" y="256" xlink:href="#p" />
<use x="272" y="272" xlink:href="#p" />
<use x="272" y="288" xlink:href="#p" />
<use x="272" y="296" xlink:href="#p" />
<use x="272" y="312" xlink:href="#p" />
<use x="280" y="32" xlink:href="#p" />
<use x="280" y="80" xlink:href="#p" />
<use x="280" y="96" xlink:href="#p" />
<use x="280" y="112" xlink:href="#p" />
<use x="280" y="120" xlink:href="#p" />
<use x="280" y="136" xlink:href="#p" />
<use x="280" y="144" xlink:href="#p" />
<use x="280" y="152" xlink:href="#p" />
<use x="280" y="184" xlink:href="#p" />
<use x="280" y="208" xlink:href="#p" />
<use x="280" y="216" xlink:href="#p" />
<use x="280" y="224" xlink:href="#p" />
<use x="280" y="232" xlink:href="#p" />
<use x="280" y="240" xlink:href="#p" />
<use x="280" y="256" xlink:href="#p" />
<use x="280" y="288" xlink:href="#p" />
<use x="288" y="32" xlink:href="#p" />
<use x="288" y="48" xlink:href="#p" />
<use x="288" y="56" xlink:href="#p" />
<use x="288" y="64" xlink:href="#p" />
<use x="288" y="80" xlink:href="#p" />
<use x="288" y="96" xlink:href="#p" />
<use x="288" y="112" xlink:href="#p" />
<use x="288" y="120" xlink:href="#p" />
<use x="288" y="128" xlink:href="#p" />
<use x="288" y="144" xlink:href="#p" />
<use x="288" y="152" xlink:href="#p" />
<use x="288" y="160" xlink:href="#p" />
<use x="288" y="192" xlink:href="#p" />
<use x="288" y="208" xlink:href="#p" />
<use x="288" y="216" xlink:href="#p" />
<use x="288" y="224" xlink:href="#p" />
<use x="288" y="240" xlink:href="#p" />
<use x="288" y="256" xlink:href="#p" />
<use x="288" y="264" xlink:href="#p" />
<use x="288" y="272" xlink:href="#p" />
<use x="288" y="280" xlink:href="#p" />
<use x="288" y="288" xlink:href="#p" />
<use x="288" y="296" xlink:href="#p" />
<use x="288" y="312" xlink:href="#p" />
<use x="288" y="320" xlink:href="#p" />
<use x="296" y="32" xlink:href="#p" />
<use x="296" y="48" xlink:href="#p" />
<use x="296" y="56" xlink:href="#p" />
<use x="296" y="64" xlink:href="#p" />
<use x="296" y="80" xlink:href="#p" />
<use x="296" y="96" xlink:href="#p" />
<use x="296" y="104" xlink:href="#p" />
<use x="296" y="144" xlink:href="#p" />
<use x="296" y="168" xlink:href="#p" />
<use x="296" y="192" xlink:href="#p" />
<use x="296" y="200" xlink:href="#p" />
<use x="296" y="208" xlink:href="#p" />
<use x="296" y="240" xlink:href="#p" />
<use x="296" y="256" xlink:href="#p" />
<use x="296" y="264" xlink:href="#p" />
<use x="296" y="280" xlink:href="#p" />
<use x="296" y="296" xlink:href="#p" />
<use x="304" y="32" xlink:href="#p" />
<use x="304" y="48" xlink:href="#p" />
<use x="304" y="56" xlink:href="#p" />
<use x="304" y="64" xlink:href="#p" />
<use x="304" y="80" xlink:href="#p" />
<use x="304" y="96" xlink:href="#p" />
<use x="304" y="128" xlink:href="#p" />
<use x="304" y="160" xlink:href="#p" />
<use x="304" y="168" xlink:href="#p" />
<use x="304" y="192" xlink:href="#p" />
<use x="304" y="224" xlink:href="#p" />
<use x="304" y="232" xlink:href="#p" />
<use x="304" y="256" xlink:href="#p" />
<use x="304" y="272" xlink:href="#p" />
<use x="304" y="288" xlink:href="#p" />
<use x="304" y="296" xlink:href="#p" />
<use x="304" y="320" xlink:href="#p" />
<use x="312" y="32" xlink:href="#p" />
<use x="312" y="80" xlink:href="#p" />
<use x="312" y="104" xlink:href="#p" />
<use x="312" y="112" xlink:href="#p" />
<use x="312" y="128" xlink:href="#p" />
<use x="312" y="144" xlink:href="#p" />
<use x="312" y="160" xlink:href="#p" />
<use x="312" y="168" xlink:href="#p" />
<use x="312" y="176" xlink:href="#p" />
<use x="312" y="208" xlink:href="#p" />
<use x="312" y="240" xlink:href="#p" />
<use x="312" y="248" xlink:href="#p" />
<use x="312" y="264" xlink:href="#p" />
<use x="312" y="272" xlink:href="#p" />
<use x="312" y="280" xlink:href="#p" />
<use x="312" y="288" xlink:href="#p" />
<use x="312" y="304" xlink:href="#p" />
<use x="312" y="320" xlink:href="#p" />
<use x="320" y="32" xlink:href="#p" />
<use x="320" y="40" xlink:href="#p" />
<use x="320" y="48" xlink:href="#p" />
<use x="320" y="56" xlink:href="#p" />
<use x="320" y="64" xlink:href="#p" />
<use x="320" y="72" xlink:href="#p" />
<use x="320" y="80" xlink:href="#p" />
<use x="320" y="112" xlink:href="#p" />
<use x="320" y="120" xlink:href="#p" />
<use x="320" y="128" xlink:href="#p" />
<use x="320" y="144" xlink:href="#p" />
<use x="320" y="152" xlink:href="#p" />
<use x="320" y="176" xlink:href="#p" />
<use x="320" y="184" xlink:href="#p" />
<use x="320" y="208" xlink:href="#p" />
<use x="320" y="216" xlink:href="#p" />
<use x="320" y="224" xlink:href="#p" />
<use x="320" y="240" xlink:href="#p" />
<use x="320" y="248" xlink:href="#p" />
<use x="320" y="272" xlink:href="#p" />
<use x="320" y="296" xlink:href="#p" />
<use x="320" y="304" xlink:href="#p" />
<use x="320" y="312" xlink:href="#p" />
<use x="320" y="320" xlink:href="#p" />
</g>
</svg>